/* XPM */
static char*mini[]={
"24 24 15 1",
"c c #008000",
"m c #c0c000",
"b c #00ff00",
"a c #beffbe",
"k c #808000",
"i c #ffffbe",
"g c #00ffff",
"# c #000000",
". c None",
"l c #ffff00",
"h c #008080",
"d c #beffff",
"e c #00c000",
"j c #00c0c0",
"f c #400040",
"........................",
"........................",
"........###.............",
"......#aaaaa##..........",
"......aaaaaabc#.........",
".....#baaaaacc#.........",
"...#bbbbbbbccc#.#d#.....",
"...#eebbbbccccf#ddd##...",
"...#eeebbcccccfdddddd#..",
"...#eeeeecccc#gdddddgh#.",
"...#eeeeeccc#ggggddghh#.",
"...#eeee#cccggggggghhh#.",
"....###iii##jjjggghhhh#.",
"......iiiiii#jjjjhhhhh#.",
".....#iiiiiik#jjjhhhh#..",
"...#lllliilkk#jjjhhh#...",
"...lllllllkkk#jjjhh#....",
"...mmllllkkkk#jjjh#.....",
"...mmmmmkkkkk#.###......",
"...mmmmmkkkk#...........",
"...mmmmmkkkk............",
"...mmmmmkk#.............",
"...##mmmk#..............",
".....#mmk..............."};
