/* XPM */
static char *mini-root[] = {
/* width height num_colors chars_per_pixel */
"    24    24       32            1",
/* colors */
". c None",
"# c #bebebe",
"a c #9e9e9e",
"b c #cfcfcf",
"c c #aeaeae",
"d c #c7c7c7",
"e c #a6a6a6",
"f c #dfdfdf",
"g c #d7d7d7",
"h c #e7e7e7",
"i c #b6b6b6",
"j c #969696",
"k c #8e8e8e",
"l c #efefef",
"m c #868686",
"n c #797979",
"o c #696969",
"p c #717171",
"q c #616161",
"r c #515151",
"s c #595959",
"t c #494949",
"u c #383838",
"v c #414141",
"w c #000000",
"x c #282828",
"y c #202020",
"z c #080808",
"A c #101010",
"B c #ffffff",
"C c #303030",
"D c #181818",
/* pixels */
"......b...b....d....e...",
".b..ghi..d.g..gf....#...",
".fakcfknadgcjnfidejhadgl",
".gimpkankkmmpknpjmajefbi",
".hnkpmmnkmmjqnkmkmmagfbf",
"gfmmajamamnmnnnpnmcfcakb",
"hemadffejmmnnajmnagqbnai",
"..efwwwj#noamjkmafwwgknd",
".i#wwwwopknkekkk#cwwfpeb",
"..gwwwwhw#mnkkabmswfeacf",
"bbgzwwwwwemjkiewwfpaakme",
".eecwwwwwiamegwwwwdjknag",
"..igonBBBcadDwwwrgjccjci",
".gdywwwwzuqwwwwpcme#yofg",
"..zwwwwwwwwwwwj#ib#wwuch",
"f#zwwwwwwwwwwgdfzwgwAtdd",
".ffwwwwwwqlwwwwwwwwdcea.",
".hifwwwwwwBqwwwwwwiemkne",
".fokbwwwwwclwwwxhiakkk#g",
"h.nmgwwwwwABwagdekmnjkjf",
"hajpbzwwwwiBtwemnkjmmami",
"..padwwwwmlwwfamkkcnnjm.",
".dckkwwwwhwwwfcjkijjmjj#",
"..#ahd.bihf.iddfhci#.gbh"
};
